<svg xmlns="http://www.w3.org/2000/svg" style="display: none;">
  <!-- Truck icon -->
  <symbol id="icon-truck" viewBox="0 0 24 24">
    <rect x="1" y="3" width="15" height="13"></rect>
    <polygon points="16 8 20 8 23 11 23 16 16 16 16 8"></polygon>
    <circle cx="5.5" cy="18.5" r="2.5"></circle>
    <circle cx="18.5" cy="18.5" r="2.5"></circle>
  </symbol>

  <!-- House icon -->
  <symbol id="icon-house" viewBox="0 0 24 24">
    <path d="M3 9l9-7 9 7v11a2 2 0 0 1-2 2H5a2 2 0 0 1-2-2z"></path>
    <polyline points="9 22 9 12 15 12 15 22"></polyline>
  </symbol>

  <!-- Large truck icon -->
  <symbol id="icon-truck-large" viewBox="0 0 24 24">
    <path d="M1 3h15v13H1z"></path>
    <path d="M16 8h4l3 3v5h-7V8z"></path>
    <circle cx="5.5" cy="18.5" r="2.5"></circle>
    <circle cx="18.5" cy="18.5" r="2.5"></circle>
  </symbol>

  <!-- Phone icon -->
  <symbol id="icon-phone" viewBox="0 0 24 24">
    <rect x="5" y="2" width="14" height="20" rx="2" ry="2"></rect>
    <line x1="12" y1="18" x2="12.01" y2="18"></line>
  </symbol>
</svg>
