<svg xmlns="http://www.w3.org/2000/svg" style="display: none;">
  <!-- Communities Icon -->
  <symbol id="icon-communities" viewBox="0 0 64 64">
    <title>Central Ohio communities</title>
    <path d="M8 28L18 20L28 28V46H8V28Z" fill="currentColor" stroke="currentColor" stroke-width="1.5"/>
    <rect x="12" y="34" width="5" height="7" fill="#fff"/>
    <rect x="20" y="34" width="4" height="4" fill="#fff"/>
    <path d="M24 24L32 18L40 24V46H24V24Z" fill="currentColor" stroke="currentColor" stroke-width="1.5"/>
    <rect x="28" y="30" width="4" height="6" fill="#fff"/>
    <rect x="33" y="30" width="3" height="3" fill="#fff"/>
    <rect x="28" y="38" width="3" height="3" fill="#fff"/>
    <rect x="33" y="38" width="3" height="3" fill="#fff"/>
    <path d="M36 28L46 20L56 28V46H36V28Z" fill="currentColor" stroke="currentColor" stroke-width="1.5"/>
    <rect x="40" y="34" width="5" height="7" fill="#fff"/>
    <rect x="48" y="34" width="4" height="4" fill="#fff"/>
    <line x1="6" y1="46" x2="58" y2="46" stroke="currentColor" stroke-width="2"/>
  </symbol>

  <!-- City Skyline Icon -->
  <symbol id="icon-city" viewBox="0 0 64 64">
    <title>Greater Columbus area</title>
    <rect x="8" y="32" width="8" height="18" fill="currentColor" stroke="currentColor" stroke-width="1"/>
    <rect x="10" y="36" width="1.5" height="2" fill="#fff"/>
    <rect x="13" y="36" width="1.5" height="2" fill="#fff"/>
    <rect x="10" y="40" width="1.5" height="2" fill="#fff"/>
    <rect x="13" y="40" width="1.5" height="2" fill="#fff"/>
    <rect x="10" y="44" width="1.5" height="2" fill="#fff"/>
    <rect x="13" y="44" width="1.5" height="2" fill="#fff"/>
    <rect x="18" y="18" width="10" height="32" fill="currentColor" stroke="currentColor" stroke-width="1"/>
    <rect x="20" y="22" width="2" height="2" fill="#fff"/>
    <rect x="24" y="22" width="2" height="2" fill="#fff"/>
    <rect x="20" y="26" width="2" height="2" fill="#fff"/>
    <rect x="24" y="26" width="2" height="2" fill="#fff"/>
    <rect x="20" y="30" width="2" height="2" fill="#fff"/>
    <rect x="24" y="30" width="2" height="2" fill="#fff"/>
    <rect x="20" y="34" width="2" height="2" fill="#fff"/>
    <rect x="24" y="34" width="2" height="2" fill="#fff"/>
    <rect x="20" y="38" width="2" height="2" fill="#fff"/>
    <rect x="24" y="38" width="2" height="2" fill="#fff"/>
    <rect x="20" y="42" width="2" height="2" fill="#fff"/>
    <rect x="24" y="42" width="2" height="2" fill="#fff"/>
    <rect x="30" y="26" width="8" height="24" fill="currentColor" stroke="currentColor" stroke-width="1"/>
    <rect x="32" y="30" width="1.5" height="2" fill="#fff"/>
    <rect x="35" y="30" width="1.5" height="2" fill="#fff"/>
    <rect x="32" y="34" width="1.5" height="2" fill="#fff"/>
    <rect x="35" y="34" width="1.5" height="2" fill="#fff"/>
    <rect x="32" y="38" width="1.5" height="2" fill="#fff"/>
    <rect x="35" y="38" width="1.5" height="2" fill="#fff"/>
    <rect x="32" y="42" width="1.5" height="2" fill="#fff"/>
    <rect x="35" y="42" width="1.5" height="2" fill="#fff"/>
    <rect x="40" y="36" width="7" height="14" fill="currentColor" stroke="currentColor" stroke-width="1"/>
    <rect x="42" y="39" width="1.5" height="1.5" fill="#fff"/>
    <rect x="44.5" y="39" width="1.5" height="1.5" fill="#fff"/>
    <rect x="42" y="42" width="1.5" height="1.5" fill="#fff"/>
    <rect x="44.5" y="42" width="1.5" height="1.5" fill="#fff"/>
    <rect x="42" y="45" width="1.5" height="1.5" fill="#fff"/>
    <rect x="44.5" y="45" width="1.5" height="1.5" fill="#fff"/>
    <rect x="49" y="24" width="8" height="26" fill="currentColor" stroke="currentColor" stroke-width="1"/>
    <rect x="51" y="28" width="1.5" height="2" fill="#fff"/>
    <rect x="54" y="28" width="1.5" height="2" fill="#fff"/>
    <rect x="51" y="32" width="1.5" height="2" fill="#fff"/>
    <rect x="54" y="32" width="1.5" height="2" fill="#fff"/>
    <rect x="51" y="36" width="1.5" height="2" fill="#fff"/>
    <rect x="54" y="36" width="1.5" height="2" fill="#fff"/>
    <rect x="51" y="40" width="1.5" height="2" fill="#fff"/>
    <rect x="54" y="40" width="1.5" height="2" fill="#fff"/>
    <rect x="51" y="44" width="1.5" height="2" fill="#fff"/>
    <rect x="54" y="44" width="1.5" height="2" fill="#fff"/>
    <line x1="6" y1="50" x2="58" y2="50" stroke="currentColor" stroke-width="2.5"/>
  </symbol>

  <!-- Location Pin Icon -->
  <symbol id="icon-location" viewBox="0 0 24 24">
    <path d="M21 10c0 7-9 13-9 13s-9-6-9-13a9 9 0 0 1 18 0z" fill="none" stroke="currentColor" stroke-width="2" stroke-linecap="round" stroke-linejoin="round"/>
    <circle cx="12" cy="10" r="3" fill="none" stroke="currentColor" stroke-width="2"/>
  </symbol>

  <!-- Phone Icon -->
  <symbol id="icon-phone" viewBox="0 0 24 24">
    <path d="M22 16.92v3a2 2 0 0 1-2.18 2 19.79 19.79 0 0 1-8.63-3.07 19.5 19.5 0 0 1-6-6 19.79 19.79 0 0 1-3.07-8.67A2 2 0 0 1 4.11 2h3a2 2 0 0 1 2 1.72 12.84 12.84 0 0 0 .7 2.81 2 2 0 0 1-.45 2.11L8.09 9.91a16 16 0 0 0 6 6l1.27-1.27a2 2 0 0 1 2.11-.45 12.84 12.84 0 0 0 2.81.7A2 2 0 0 1 22 16.92z" fill="none" stroke="currentColor" stroke-width="2" stroke-linecap="round" stroke-linejoin="round"/>
  <!-- Email/Mail Icon -->
  <symbol id="icon-mail" viewBox="0 0 24 24">
    <path d="M4 4h16c1.1 0 2 .9 2 2v12c0 1.1-.9 2-2 2H4c-1.1 0-2-.9-2-2V6c0-1.1.9-2 2-2z" fill="none" stroke="currentColor" stroke-width="2" stroke-linecap="round" stroke-linejoin="round"/>
    <polyline points="22,6 12,13 2,6" fill="none" stroke="currentColor" stroke-width="2" stroke-linecap="round" stroke-linejoin="round"/>
  </symbol>

  </symbol>
</svg>
